{
	"patcher" : 	{
		"fileversion" : 1,
		"appversion" : 		{
			"major" : 7,
			"minor" : 3,
			"revision" : 4,
			"architecture" : "x64",
			"modernui" : 1
		}
,
		"rect" : [ 408.0, 128.0, 513.0, 783.0 ],
		"bglocked" : 0,
		"openinpresentation" : 0,
		"default_fontsize" : 12.0,
		"default_fontface" : 0,
		"default_fontname" : "Arial",
		"gridonopen" : 1,
		"gridsize" : [ 15.0, 15.0 ],
		"gridsnaponopen" : 1,
		"objectsnaponopen" : 1,
		"statusbarvisible" : 2,
		"toolbarvisible" : 1,
		"lefttoolbarpinned" : 0,
		"toptoolbarpinned" : 0,
		"righttoolbarpinned" : 0,
		"bottomtoolbarpinned" : 0,
		"toolbars_unpinned_last_save" : 0,
		"tallnewobj" : 0,
		"boxanimatetime" : 200,
		"enablehscroll" : 1,
		"enablevscroll" : 1,
		"devicewidth" : 0.0,
		"description" : "",
		"digest" : "",
		"tags" : "",
		"style" : "",
		"subpatcher_template" : "",
		"boxes" : [ 			{
				"box" : 				{
					"id" : "obj-4",
					"maxclass" : "button",
					"numinlets" : 1,
					"numoutlets" : 1,
					"outlettype" : [ "bang" ],
					"patching_rect" : [ 454.333344, 170.0, 24.0, 24.0 ],
					"style" : ""
				}

			}
, 			{
				"box" : 				{
					"comment" : "",
					"id" : "obj-17",
					"index" : 1,
					"maxclass" : "inlet",
					"numinlets" : 0,
					"numoutlets" : 1,
					"outlettype" : [ "int" ],
					"patching_rect" : [ 181.0, 26.0, 30.0, 30.0 ],
					"style" : ""
				}

			}
, 			{
				"box" : 				{
					"id" : "obj-14",
					"maxclass" : "message",
					"numinlets" : 2,
					"numoutlets" : 1,
					"outlettype" : [ "" ],
					"patching_rect" : [ 760.366699, 241.0, 49.0, 22.0 ],
					"style" : "",
					"text" : "setall 0"
				}

			}
, 			{
				"box" : 				{
					"id" : "obj-7",
					"maxclass" : "message",
					"numinlets" : 2,
					"numoutlets" : 1,
					"outlettype" : [ "" ],
					"patching_rect" : [ 841.0, 487.333344, 30.0, 22.0 ],
					"style" : "",
					"text" : "text"
				}

			}
, 			{
				"box" : 				{
					"id" : "obj-5",
					"maxclass" : "button",
					"numinlets" : 1,
					"numoutlets" : 1,
					"outlettype" : [ "bang" ],
					"patching_rect" : [ 304.0, 478.0, 24.0, 24.0 ],
					"style" : ""
				}

			}
, 			{
				"box" : 				{
					"fontname" : "Arial",
					"fontsize" : 13.0,
					"id" : "obj-8",
					"maxclass" : "newobj",
					"numinlets" : 1,
					"numoutlets" : 1,
					"outlettype" : [ "" ],
					"patching_rect" : [ 367.0, 405.0, 47.0, 23.0 ],
					"style" : "",
					"text" : "fontlist"
				}

			}
, 			{
				"box" : 				{
					"fontname" : "Arial",
					"fontsize" : 13.0,
					"id" : "obj-82",
					"maxclass" : "newobj",
					"numinlets" : 1,
					"numoutlets" : 1,
					"outlettype" : [ "" ],
					"patching_rect" : [ 431.0, 462.0, 64.0, 23.0 ],
					"style" : "",
					"text" : "tosymbol"
				}

			}
, 			{
				"box" : 				{
					"fontname" : "Arial",
					"fontsize" : 13.0,
					"id" : "obj-83",
					"maxclass" : "newobj",
					"numinlets" : 2,
					"numoutlets" : 1,
					"outlettype" : [ "" ],
					"patching_rect" : [ 352.0, 489.0, 98.0, 23.0 ],
					"style" : "",
					"text" : "pak font Times"
				}

			}
, 			{
				"box" : 				{
					"id" : "obj-84",
					"items" : [ "Adobe Caslon Pro", ",", "Adobe Caslon Pro Bold", ",", "Adobe Garamond Pro", ",", "Adobe Garamond Pro Bold", ",", "Arial", ",", "Arial Black", ",", "Arimo", ",", "Arno Pro", ",", "Arno Pro Caption", ",", "Arno Pro Display", ",", "Arno Pro Light Display", ",", "Arno Pro Smbd", ",", "Arno Pro Smbd Caption", ",", "Arno Pro Smbd Display", ",", "Arno Pro Smbd SmText", ",", "Arno Pro Smbd Subhead", ",", "Arno Pro SmText", ",", "Arno Pro Subhead", ",", "Avenir LT Std 45 Book", ",", "Bell Gothic Std Black", ",", "Bell Gothic Std Light", ",", "Bickham Script Pro Regular", ",", "Bickham Script Pro Semibold", ",", "Birch Std", ",", "Blackoak Std", ",", "BPlatinNumerals", ",", "BPletterSquares", ",", "Brush Script Std", ",", "Calibri", ",", "Calibri Light", ",", "Cambria", ",", "Cambria Math", ",", "Candara", ",", "Chaparral Pro", ",", "Charlemagne Std", ",", "CitizenBold", ",", "CitizenLight", ",", "Comic Sans MS", ",", "Consolas", ",", "Constantia", ",", "Cooper Std Black", ",", "Corbel", ",", "Courier New", ",", "DejaVu Sans", ",", "DejaVu Sans Condensed", ",", "DejaVu Sans Light", ",", "DejaVu Sans Mono", ",", "DejaVu Serif", ",", "DejaVu Serif Condensed", ",", "Ebrima", ",", "Eccentric Std", ",", "Franklin Gothic Medium", ",", "Gabriola", ",", "Gadugi", ",", "Garamond Premr Pro", ",", "Garamond Premr Pro Smbd", ",", "Gentium Basic", ",", "Gentium Book Basic", ",", "Georgia", ",", "GeosansLight-NMS", ",", "Giddyup Std", ",", "Grotesque MT", ",", "Grotesque MT Light", ",", "Grotesque MT Std Light", ",", "Hobo Std", ",", "HoloLens MDL2 Assets", ",", "Impact", ",", "Javanese Text", ",", "Kenney Future Square", ",", "Kozuka Gothic Pro B", ",", "Kozuka Gothic Pro EL", ",", "Kozuka Gothic Pro H", ",", "Kozuka Gothic Pro L", ",", "Kozuka Gothic Pro M", ",", "Kozuka Gothic Pro R", ",", "Kozuka Mincho Pro B", ",", "Kozuka Mincho Pro EL", ",", "Kozuka Mincho Pro H", ",", "Kozuka Mincho Pro L", ",", "Kozuka Mincho Pro M", ",", "Kozuka Mincho Pro R", ",", "Lato", ",", "Lato Black", ",", "Lato Hairline", ",", "Lato Heavy", ",", "Lato Light", ",", "Lato Medium", ",", "Lato Semibold", ",", "Lato Thin", ",", "Leelawadee UI", ",", "Leelawadee UI Semilight", ",", "Letter Gothic Std", ",", "Lithos Pro Regular", ",", "Lucida Console", ",", "Lucida Sans Unicode", ",", "Malgun Gothic", ",", "Malgun Gothic Semilight", ",", "Marlett", ",", "Meiryo", ",", "Meiryo UI", ",", "Mesquite Std", ",", "Microsoft Himalaya", ",", "Microsoft JhengHei", ",", "Microsoft JhengHei Light", ",", "Microsoft JhengHei UI", ",", "Microsoft JhengHei UI Light", ",", "Microsoft New Tai Lue", ",", "Microsoft PhagsPa", ",", "Microsoft Sans Serif", ",", "Microsoft Tai Le", ",", "Microsoft YaHei", ",", "Microsoft YaHei Light", ",", "Microsoft YaHei UI", ",", "Microsoft YaHei UI Light", ",", "Microsoft Yi Baiti", ",", "MingLiU-ExtB", ",", "MingLiU_HKSCS-ExtB", ",", "Minion Pro", ",", "Minion Pro Cond", ",", "Minion Pro Med", ",", "Minion Pro SmBd", ",", "Modern", ",", "Mongolian Baiti", ",", "MS Gothic", ",", "MS Mincho", ",", "MS PGothic", ",", "MS PMincho", ",", "MS UI Gothic", ",", "MV Boli", ",", "Myanmar Text", ",", "Myriad Pro", ",", "Myriad Pro Cond", ",", "Myriad Pro Light", ",", "Nirmala UI", ",", "Nirmala UI Semilight", ",", "NSimSun", ",", "Nueva Std Cond", ",", "OCR A Std", ",", "OpenSymbol", ",", "Orator Std", ",", "Palatino Linotype", ",", "PMingLiU-ExtB", ",", "Poplar Std", ",", "Prestige Elite Std", ",", "Roman", ",", "Rosewood Std Regular", ",", "Script", ",", "Segoe MDL2 Assets", ",", "Segoe Print", ",", "Segoe Script", ",", "Segoe UI", ",", "Segoe UI Black", ",", "Segoe UI Emoji", ",", "Segoe UI Historic", ",", "Segoe UI Light", ",", "Segoe UI Semibold", ",", "Segoe UI Semilight", ",", "Segoe UI Symbol", ",", "SimSun", ",", "SimSun-ExtB", ",", "Sitka Banner", ",", "Sitka Display", ",", "Sitka Heading", ",", "Sitka Small", ",", "Sitka Subheading", ",", "Sitka Text", ",", "Stencil Std", ",", "Sylfaen", ",", "Symbol", ",", "Tahoma", ",", "Tekton Pro", ",", "Tekton Pro Cond", ",", "Tekton Pro Ext", ",", "Times New Roman", ",", "Trajan Pro", ",", "Trebuchet MS", ",", "Verdana", ",", "Webdings", ",", "Wingdings", ",", "Yu Gothic", ",", "Yu Gothic Light", ",", "Yu Gothic Medium", ",", "Yu Gothic UI", ",", "Yu Gothic UI Light", ",", "Yu Gothic UI Semibold", ",", "Yu Gothic UI Semilight", ",", "Yu Mincho", ",", "Yu Mincho Demibold", ",", "Yu Mincho Light" ],
					"maxclass" : "umenu",
					"numinlets" : 1,
					"numoutlets" : 3,
					"outlettype" : [ "int", "", "" ],
					"parameter_enable" : 0,
					"patching_rect" : [ 367.0, 433.0, 147.0, 22.0 ],
					"style" : ""
				}

			}
, 			{
				"box" : 				{
					"id" : "obj-3",
					"maxclass" : "message",
					"numinlets" : 2,
					"numoutlets" : 1,
					"outlettype" : [ "" ],
					"patching_rect" : [ 522.0, 533.0, 29.5, 22.0 ],
					"style" : "",
					"text" : "40"
				}

			}
, 			{
				"box" : 				{
					"id" : "obj-48",
					"maxclass" : "message",
					"numinlets" : 2,
					"numoutlets" : 1,
					"outlettype" : [ "" ],
					"patching_rect" : [ 510.333344, 607.666687, 34.0, 22.0 ],
					"style" : "",
					"text" : "0.78"
				}

			}
, 			{
				"box" : 				{
					"id" : "obj-46",
					"maxclass" : "message",
					"numinlets" : 2,
					"numoutlets" : 1,
					"outlettype" : [ "" ],
					"patching_rect" : [ 446.333344, 600.666687, 38.0, 22.0 ],
					"style" : "",
					"text" : "-0.22"
				}

			}
, 			{
				"box" : 				{
					"id" : "obj-44",
					"maxclass" : "newobj",
					"numinlets" : 1,
					"numoutlets" : 1,
					"outlettype" : [ "bang" ],
					"patching_rect" : [ 446.333344, 576.666687, 60.0, 22.0 ],
					"style" : "",
					"text" : "loadbang"
				}

			}
, 			{
				"box" : 				{
					"id" : "obj-29",
					"maxclass" : "newobj",
					"numinlets" : 1,
					"numoutlets" : 1,
					"outlettype" : [ "bang" ],
					"patching_rect" : [ 20.0, 131.0, 60.0, 22.0 ],
					"style" : "",
					"text" : "loadbang"
				}

			}
, 			{
				"box" : 				{
					"format" : 6,
					"id" : "obj-28",
					"maxclass" : "flonum",
					"numinlets" : 1,
					"numoutlets" : 2,
					"outlettype" : [ "", "bang" ],
					"parameter_enable" : 0,
					"patching_rect" : [ 510.333344, 651.333374, 50.0, 22.0 ],
					"style" : ""
				}

			}
, 			{
				"box" : 				{
					"format" : 6,
					"id" : "obj-27",
					"maxclass" : "flonum",
					"numinlets" : 1,
					"numoutlets" : 2,
					"outlettype" : [ "", "bang" ],
					"parameter_enable" : 0,
					"patching_rect" : [ 446.333344, 651.333374, 50.0, 22.0 ],
					"style" : ""
				}

			}
, 			{
				"box" : 				{
					"id" : "obj-23",
					"maxclass" : "newobj",
					"numinlets" : 4,
					"numoutlets" : 1,
					"outlettype" : [ "" ],
					"patching_rect" : [ 446.333344, 692.666687, 101.0, 22.0 ],
					"style" : "",
					"text" : "pak position f f 0."
				}

			}
, 			{
				"box" : 				{
					"id" : "obj-21",
					"maxclass" : "newobj",
					"numinlets" : 1,
					"numoutlets" : 1,
					"outlettype" : [ "bang" ],
					"patching_rect" : [ 540.333374, 472.666718, 60.0, 22.0 ],
					"style" : "",
					"text" : "loadbang"
				}

			}
, 			{
				"box" : 				{
					"id" : "obj-18",
					"maxclass" : "message",
					"numinlets" : 2,
					"numoutlets" : 1,
					"outlettype" : [ "" ],
					"patching_rect" : [ 540.333374, 564.0, 49.0, 22.0 ],
					"style" : "",
					"text" : "size $1"
				}

			}
, 			{
				"box" : 				{
					"id" : "obj-15",
					"maxclass" : "message",
					"numinlets" : 2,
					"numoutlets" : 1,
					"outlettype" : [ "" ],
					"patching_rect" : [ 656.366699, 538.0, 81.0, 22.0 ],
					"style" : "",
					"text" : "font GroteMT"
				}

			}
, 			{
				"box" : 				{
					"id" : "obj-6",
					"maxclass" : "message",
					"numinlets" : 2,
					"numoutlets" : 1,
					"outlettype" : [ "" ],
					"patching_rect" : [ 20.0, 166.333328, 127.0, 22.0 ],
					"style" : "",
					"text" : "erase_color 0. 0. 0. 1."
				}

			}
, 			{
				"box" : 				{
					"id" : "obj-34",
					"maxclass" : "message",
					"numinlets" : 2,
					"numoutlets" : 1,
					"outlettype" : [ "" ],
					"patching_rect" : [ 483.333344, 241.0, 37.0, 22.0 ],
					"style" : "",
					"text" : "clear"
				}

			}
, 			{
				"box" : 				{
					"id" : "obj-123",
					"maxclass" : "newobj",
					"numinlets" : 1,
					"numoutlets" : 1,
					"outlettype" : [ "" ],
					"patching_rect" : [ 632.366699, 388.133362, 20.0, 22.0 ],
					"style" : "",
					"text" : "t l"
				}

			}
, 			{
				"box" : 				{
					"id" : "obj-99",
					"maxclass" : "newobj",
					"numinlets" : 2,
					"numoutlets" : 2,
					"outlettype" : [ "", "" ],
					"patching_rect" : [ 632.366699, 357.733398, 139.0, 22.0 ],
					"style" : "",
					"text" : "zl.join @zlmaxsize 1280"
				}

			}
, 			{
				"box" : 				{
					"id" : "obj-96",
					"maxclass" : "newobj",
					"numinlets" : 1,
					"numoutlets" : 2,
					"outlettype" : [ "", "" ],
					"patching_rect" : [ 632.366699, 325.466736, 98.0, 22.0 ],
					"style" : "",
					"text" : "jit.spill @plane 0"
				}

			}
, 			{
				"box" : 				{
					"id" : "obj-94",
					"maxclass" : "newobj",
					"numinlets" : 1,
					"numoutlets" : 2,
					"outlettype" : [ "", "" ],
					"patching_rect" : [ 632.366699, 257.06665, 79.0, 22.0 ],
					"style" : "",
					"text" : "jit.fill txtline 0"
				}

			}
, 			{
				"box" : 				{
					"id" : "obj-93",
					"maxclass" : "newobj",
					"numinlets" : 1,
					"numoutlets" : 2,
					"outlettype" : [ "jit_matrix", "" ],
					"patching_rect" : [ 632.366699, 286.200043, 153.0, 22.0 ],
					"style" : "",
					"text" : "jit.matrix txtline 1 char 64 1"
				}

			}
, 			{
				"box" : 				{
					"id" : "obj-41",
					"maxclass" : "newobj",
					"numinlets" : 3,
					"numoutlets" : 1,
					"outlettype" : [ "list" ],
					"patching_rect" : [ 632.366699, 227.266663, 40.0, 22.0 ],
					"style" : "",
					"text" : "atoi"
				}

			}
, 			{
				"box" : 				{
					"id" : "obj-40",
					"maxclass" : "newobj",
					"numinlets" : 0,
					"numoutlets" : 1,
					"outlettype" : [ "" ],
					"patching_rect" : [ 632.366699, 138.733322, 57.0, 22.0 ],
					"style" : "",
					"text" : "r logOne"
				}

			}
, 			{
				"box" : 				{
					"id" : "obj-24",
					"linecount" : 2,
					"maxclass" : "newobj",
					"numinlets" : 1,
					"numoutlets" : 2,
					"outlettype" : [ "", "" ],
					"patching_rect" : [ 632.366699, 426.666656, 56.0, 36.0 ],
					"style" : "",
					"text" : "jit.fill txtOne 0"
				}

			}
, 			{
				"box" : 				{
					"fontname" : "Arial",
					"fontsize" : 13.0,
					"id" : "obj-81",
					"maxclass" : "number",
					"numinlets" : 1,
					"numoutlets" : 2,
					"outlettype" : [ "", "bang" ],
					"parameter_enable" : 0,
					"patching_rect" : [ 454.333344, 514.0, 52.0, 23.0 ],
					"style" : "",
					"triscale" : 0.9
				}

			}
, 			{
				"box" : 				{
					"fontname" : "Arial",
					"fontsize" : 13.0,
					"id" : "obj-95",
					"maxclass" : "newobj",
					"numinlets" : 1,
					"numoutlets" : 2,
					"outlettype" : [ "jit_matrix", "" ],
					"patching_rect" : [ 632.366699, 487.333344, 177.0, 23.0 ],
					"style" : "",
					"text" : "jit.matrix txtOne 1 char 64 40"
				}

			}
, 			{
				"box" : 				{
					"fontface" : 0,
					"fontname" : "Arial",
					"fontsize" : 13.0,
					"id" : "obj-22",
					"maxclass" : "jit.fpsgui",
					"numinlets" : 1,
					"numoutlets" : 2,
					"outlettype" : [ "", "" ],
					"patching_rect" : [ 198.799988, 207.599976, 55.0, 37.0 ],
					"style" : ""
				}

			}
, 			{
				"box" : 				{
					"fontname" : "Arial",
					"fontsize" : 13.0,
					"id" : "obj-85",
					"maxclass" : "newobj",
					"numinlets" : 1,
					"numoutlets" : 2,
					"outlettype" : [ "bang", "erase" ],
					"patching_rect" : [ 181.0, 108.0, 61.0, 23.0 ],
					"style" : "",
					"text" : "t b erase"
				}

			}
, 			{
				"box" : 				{
					"fontname" : "Arial",
					"fontsize" : 13.0,
					"id" : "obj-87",
					"maxclass" : "newobj",
					"numinlets" : 2,
					"numoutlets" : 1,
					"outlettype" : [ "bang" ],
					"patching_rect" : [ 181.0, 73.0, 131.0, 23.0 ],
					"style" : "",
					"text" : "qmetro 30 @active 0"
				}

			}
, 			{
				"box" : 				{
					"bgcolor" : [ 0.309495, 0.299387, 0.299789, 1.0 ],
					"fontname" : "Arial",
					"fontsize" : 13.0,
					"id" : "obj-92",
					"maxclass" : "newobj",
					"numinlets" : 1,
					"numoutlets" : 2,
					"outlettype" : [ "bang", "" ],
					"patching_rect" : [ 181.0, 166.333328, 117.0, 23.0 ],
					"style" : "",
					"text" : "jit.gl.render logOut"
				}

			}
, 			{
				"box" : 				{
					"fontname" : "Arial",
					"fontsize" : 13.0,
					"id" : "obj-20",
					"linecount" : 2,
					"maxclass" : "newobj",
					"numinlets" : 1,
					"numoutlets" : 2,
					"outlettype" : [ "", "" ],
					"patching_rect" : [ 632.366699, 613.200012, 186.0, 38.0 ],
					"style" : "",
					"text" : "jit.gl.text2d @color 1. 0.5 1. 1. @drawto logOut"
				}

			}
, 			{
				"box" : 				{
					"id" : "obj-109",
					"maxclass" : "newobj",
					"numinlets" : 1,
					"numoutlets" : 2,
					"outlettype" : [ "jit_matrix", "" ],
					"patching_rect" : [ 83.000061, 357.733398, 177.0, 22.0 ],
					"style" : "",
					"text" : "jit.matrix logOut 4 char 320 800"
				}

			}
, 			{
				"box" : 				{
					"comment" : "",
					"id" : "obj-1",
					"index" : 1,
					"maxclass" : "outlet",
					"numinlets" : 1,
					"numoutlets" : 0,
					"patching_rect" : [ 78.333374, 405.0, 30.0, 30.0 ],
					"style" : ""
				}

			}
, 			{
				"box" : 				{
					"id" : "obj-11",
					"maxclass" : "message",
					"numinlets" : 2,
					"numoutlets" : 1,
					"outlettype" : [ "" ],
					"patching_rect" : [ 454.333344, 328.733398, 50.0, 22.0 ],
					"style" : "",
					"text" : "zlclear"
				}

			}
 ],
		"lines" : [ 			{
				"patchline" : 				{
					"destination" : [ "obj-1", 0 ],
					"source" : [ "obj-109", 0 ]
				}

			}
, 			{
				"patchline" : 				{
					"destination" : [ "obj-99", 0 ],
					"source" : [ "obj-11", 0 ]
				}

			}
, 			{
				"patchline" : 				{
					"destination" : [ "obj-99", 1 ],
					"source" : [ "obj-123", 0 ]
				}

			}
, 			{
				"patchline" : 				{
					"destination" : [ "obj-93", 0 ],
					"source" : [ "obj-14", 0 ]
				}

			}
, 			{
				"patchline" : 				{
					"destination" : [ "obj-20", 0 ],
					"source" : [ "obj-15", 0 ]
				}

			}
, 			{
				"patchline" : 				{
					"destination" : [ "obj-87", 0 ],
					"source" : [ "obj-17", 0 ]
				}

			}
, 			{
				"patchline" : 				{
					"destination" : [ "obj-20", 0 ],
					"source" : [ "obj-18", 0 ]
				}

			}
, 			{
				"patchline" : 				{
					"destination" : [ "obj-15", 0 ],
					"order" : 0,
					"source" : [ "obj-21", 0 ]
				}

			}
, 			{
				"patchline" : 				{
					"destination" : [ "obj-3", 0 ],
					"order" : 1,
					"source" : [ "obj-21", 0 ]
				}

			}
, 			{
				"patchline" : 				{
					"destination" : [ "obj-20", 0 ],
					"source" : [ "obj-23", 0 ]
				}

			}
, 			{
				"patchline" : 				{
					"destination" : [ "obj-95", 0 ],
					"source" : [ "obj-24", 0 ]
				}

			}
, 			{
				"patchline" : 				{
					"destination" : [ "obj-23", 1 ],
					"source" : [ "obj-27", 0 ]
				}

			}
, 			{
				"patchline" : 				{
					"destination" : [ "obj-23", 2 ],
					"source" : [ "obj-28", 0 ]
				}

			}
, 			{
				"patchline" : 				{
					"destination" : [ "obj-6", 0 ],
					"source" : [ "obj-29", 0 ]
				}

			}
, 			{
				"patchline" : 				{
					"destination" : [ "obj-18", 0 ],
					"source" : [ "obj-3", 0 ]
				}

			}
, 			{
				"patchline" : 				{
					"destination" : [ "obj-24", 0 ],
					"order" : 1,
					"source" : [ "obj-34", 0 ]
				}

			}
, 			{
				"patchline" : 				{
					"destination" : [ "obj-93", 0 ],
					"order" : 3,
					"source" : [ "obj-34", 0 ]
				}

			}
, 			{
				"patchline" : 				{
					"destination" : [ "obj-94", 0 ],
					"order" : 4,
					"source" : [ "obj-34", 0 ]
				}

			}
, 			{
				"patchline" : 				{
					"destination" : [ "obj-95", 0 ],
					"order" : 0,
					"source" : [ "obj-34", 0 ]
				}

			}
, 			{
				"patchline" : 				{
					"destination" : [ "obj-96", 0 ],
					"order" : 2,
					"source" : [ "obj-34", 0 ]
				}

			}
, 			{
				"patchline" : 				{
					"destination" : [ "obj-11", 0 ],
					"order" : 1,
					"source" : [ "obj-4", 0 ]
				}

			}
, 			{
				"patchline" : 				{
					"destination" : [ "obj-34", 0 ],
					"order" : 0,
					"source" : [ "obj-4", 0 ]
				}

			}
, 			{
				"patchline" : 				{
					"destination" : [ "obj-41", 0 ],
					"source" : [ "obj-40", 0 ]
				}

			}
, 			{
				"patchline" : 				{
					"destination" : [ "obj-94", 0 ],
					"source" : [ "obj-41", 0 ]
				}

			}
, 			{
				"patchline" : 				{
					"destination" : [ "obj-46", 0 ],
					"order" : 1,
					"source" : [ "obj-44", 0 ]
				}

			}
, 			{
				"patchline" : 				{
					"destination" : [ "obj-48", 0 ],
					"order" : 0,
					"source" : [ "obj-44", 0 ]
				}

			}
, 			{
				"patchline" : 				{
					"destination" : [ "obj-27", 0 ],
					"source" : [ "obj-46", 0 ]
				}

			}
, 			{
				"patchline" : 				{
					"destination" : [ "obj-28", 0 ],
					"source" : [ "obj-48", 0 ]
				}

			}
, 			{
				"patchline" : 				{
					"destination" : [ "obj-8", 0 ],
					"source" : [ "obj-5", 0 ]
				}

			}
, 			{
				"patchline" : 				{
					"destination" : [ "obj-92", 0 ],
					"source" : [ "obj-6", 0 ]
				}

			}
, 			{
				"patchline" : 				{
					"destination" : [ "obj-20", 0 ],
					"source" : [ "obj-7", 0 ]
				}

			}
, 			{
				"patchline" : 				{
					"destination" : [ "obj-84", 0 ],
					"source" : [ "obj-8", 0 ]
				}

			}
, 			{
				"patchline" : 				{
					"destination" : [ "obj-18", 0 ],
					"source" : [ "obj-81", 0 ]
				}

			}
, 			{
				"patchline" : 				{
					"destination" : [ "obj-83", 1 ],
					"source" : [ "obj-82", 0 ]
				}

			}
, 			{
				"patchline" : 				{
					"destination" : [ "obj-20", 0 ],
					"source" : [ "obj-83", 0 ]
				}

			}
, 			{
				"patchline" : 				{
					"destination" : [ "obj-82", 0 ],
					"source" : [ "obj-84", 1 ]
				}

			}
, 			{
				"patchline" : 				{
					"destination" : [ "obj-109", 0 ],
					"order" : 1,
					"source" : [ "obj-85", 0 ]
				}

			}
, 			{
				"patchline" : 				{
					"destination" : [ "obj-92", 0 ],
					"midpoints" : [ 232.5, 162.0, 190.5, 162.0 ],
					"source" : [ "obj-85", 1 ]
				}

			}
, 			{
				"patchline" : 				{
					"destination" : [ "obj-92", 0 ],
					"order" : 0,
					"source" : [ "obj-85", 0 ]
				}

			}
, 			{
				"patchline" : 				{
					"destination" : [ "obj-85", 0 ],
					"source" : [ "obj-87", 0 ]
				}

			}
, 			{
				"patchline" : 				{
					"destination" : [ "obj-22", 0 ],
					"source" : [ "obj-92", 0 ]
				}

			}
, 			{
				"patchline" : 				{
					"destination" : [ "obj-96", 0 ],
					"source" : [ "obj-93", 0 ]
				}

			}
, 			{
				"patchline" : 				{
					"destination" : [ "obj-93", 0 ],
					"source" : [ "obj-94", 0 ]
				}

			}
, 			{
				"patchline" : 				{
					"destination" : [ "obj-20", 0 ],
					"source" : [ "obj-95", 0 ]
				}

			}
, 			{
				"patchline" : 				{
					"destination" : [ "obj-99", 0 ],
					"source" : [ "obj-96", 0 ]
				}

			}
, 			{
				"patchline" : 				{
					"destination" : [ "obj-123", 0 ],
					"order" : 1,
					"source" : [ "obj-99", 0 ]
				}

			}
, 			{
				"patchline" : 				{
					"destination" : [ "obj-24", 0 ],
					"order" : 0,
					"source" : [ "obj-99", 0 ]
				}

			}
 ],
		"styles" : [ 			{
				"name" : "pD_orange",
				"default" : 				{
					"bgcolor" : [ 0.862745, 0.870588, 0.878431, 1.0 ],
					"textcolor_inverse" : [ 0.0, 0.0, 0.0, 1.0 ],
					"patchlinecolor" : [ 0.870588, 0.415686, 0.062745, 0.9 ],
					"accentcolor" : [ 0.0, 0.0, 0.0, 1.0 ],
					"elementcolor" : [ 0.720698, 0.16723, 0.080014, 1.0 ],
					"fontface" : [ 1 ],
					"fontsize" : [ 16.0 ],
					"bgfillcolor" : 					{
						"type" : "gradient",
						"color" : [ 0.290196, 0.309804, 0.301961, 1.0 ],
						"color1" : [ 0.317647, 0.654902, 0.976471, 1.0 ],
						"color2" : [ 0.317647, 0.654902, 0.976471, 1.0 ],
						"angle" : 270.0,
						"proportion" : 0.39,
						"autogradient" : 0
					}
,
					"fontname" : [ "Courier New" ]
				}
,
				"parentstyle" : "",
				"multi" : 0
			}
 ]
	}

}
